<?xml version="1.0" standalone="no"?>
<!DOCTYPE svg PUBLIC "-//W3C//DTD SVG 20010904//EN"
 "http://www.w3.org/TR/2001/REC-SVG-20010904/DTD/svg10.dtd">
<svg version="1.0" xmlns="http://www.w3.org/2000/svg"
 width="260.000000pt" height="260.000000pt" viewBox="0 0 260.000000 260.000000"
 preserveAspectRatio="xMidYMid meet">
<metadata>
Created by potrace 1.14, written by Peter Selinger 2001-2017
</metadata>
<g transform="translate(0.000000,260.000000) scale(0.100000,-0.100000)"
fill="#000000" stroke="none">
<path d="M0 1300 l0 -1300 1300 0 1300 0 0 1300 0 1300 -1300 0 -1300 0 0
-1300z m530 1280 c0 -5 -2 -10 -4 -10 -3 0 -8 5 -11 10 -3 6 -1 10 4 10 6 0
11 -4 11 -10z m-303 -452 c-3 -8 -6 -5 -6 6 -1 11 2 17 5 13 3 -3 4 -12 1 -19z
m1144 -179 c57 -5 107 -13 110 -17 4 -4 -3 -50 -16 -102 -12 -52 -24 -109 -28
-126 l-6 -31 78 -17 c127 -27 225 -101 266 -200 23 -55 21 -177 -5 -250 -64
-185 -210 -290 -431 -311 l-76 -7 -14 -72 -14 -71 -112 -3 -111 -3 18 75 17
76 -36 5 c-100 15 -145 29 -188 58 -53 35 -107 108 -123 165 -18 66 -12 181
14 257 13 38 22 74 18 80 -3 5 -2 7 3 3 5 -5 31 14 59 40 89 84 184 129 331
157 44 9 82 19 85 23 4 4 14 47 24 96 10 49 20 96 23 104 5 12 -3 13 -48 7
-98 -12 -166 -35 -196 -67 -25 -26 -28 -36 -26 -88 l1 -58 -36 5 c-80 12 -112
44 -112 109 0 81 120 146 300 164 112 11 120 11 231 -1z m-1010 -476 c13 -16
12 -17 -3 -4 -10 7 -18 15 -18 17 0 8 8 3 21 -13z"/>
<path d="M1106 1565 c-85 -35 -130 -78 -173 -165 -23 -47 -27 -71 -31 -165 -4
-106 -3 -112 25 -165 31 -59 84 -103 118 -98 17 3 23 17 37 83 9 44 37 178 62
298 25 121 46 223 46 228 0 14 -21 10 -84 -16z"/>
<path d="M1350 1293 c-34 -164 -65 -304 -67 -310 -8 -21 62 -16 112 8 78 37
156 140 185 247 6 24 11 76 11 117 0 113 -35 179 -116 216 -22 10 -45 19 -51
19 -6 0 -38 -126 -74 -297z"/>
</g>
</svg>
